HIERARCHY
ROOT Pelvis
{
	OFFSET 0.000000 0.000000 0.000000
	CHANNELS 6 Xposition Yposition Zposition Xrotation Yrotation Zrotation
	JOINT LeftUpLeg_virtual
	{
		OFFSET 0.000000 0.000000 0.000000
		CHANNELS 3 Xrotation Yrotation Zrotation
		JOINT LeftUpLeg
		{
			OFFSET 18.735201 -5.666702 -4.541200
			CHANNELS 3 Xrotation Yrotation Zrotation
			JOINT LeftLeg
			{
				OFFSET -0.021200 -31.938179 0.493100
				CHANNELS 3 Xrotation Yrotation Zrotation
				JOINT LeftFoot
				{
					OFFSET 0.021200 -31.938179 -4.336299
					CHANNELS 3 Xrotation Yrotation Zrotation
					JOINT LeftToeBase
					{
						OFFSET 0.943001 -26.722000 15.023500
						CHANNELS 3 Xrotation Yrotation Zrotation
						End Site
						{
							OFFSET 0 0 0
						}
					}
				}
			}
		}
	}
	JOINT RightUpLeg_virtual
	{
		OFFSET 0.000000 0.000000 0.000000
		CHANNELS 3 Xrotation Yrotation Zrotation
		JOINT RightUpLeg
		{
			OFFSET -18.735201 -5.666702 -4.541200
			CHANNELS 3 Xrotation Yrotation Zrotation
			JOINT RightLeg
			{
				OFFSET 0.018946 -31.938133 0.493100
				CHANNELS 3 Xrotation Yrotation Zrotation
				JOINT RightFoot
				{
					OFFSET -0.018946 -31.938126 -4.336299
					CHANNELS 3 Xrotation Yrotation Zrotation
					JOINT RightToeBase
					{
						OFFSET -0.943001 -26.722004 15.023500
						CHANNELS 3 Xrotation Yrotation Zrotation
						End Site
						{
							OFFSET 0 0 0
						}
					}
				}
			}
		}
	}
	JOINT Hips_virtual
	{
		OFFSET 0.000000 0.000000 0.000000
		CHANNELS 3 Xrotation Yrotation Zrotation
		JOINT Hips
		{
			OFFSET -0.000000 -0.000000 -0.000000
			CHANNELS 3 Xrotation Yrotation Zrotation
			JOINT Spine
			{
				OFFSET 0.000000 10.199997 -0.299500
				CHANNELS 3 Xrotation Yrotation Zrotation
				JOINT Spine1
				{
					OFFSET 0.000000 11.900002 -1.516600
					CHANNELS 3 Xrotation Yrotation Zrotation
					JOINT Spine2
					{
						OFFSET 0.000000 13.600006 -2.842500
						CHANNELS 3 Xrotation Yrotation Zrotation
						JOINT Neck_virtual
						{
							OFFSET 0.000000 0.000000 0.000000
							CHANNELS 3 Xrotation Yrotation Zrotation
							JOINT Neck
							{
								OFFSET 0.000000 9.624100 -2.890100
								CHANNELS 3 Xrotation Yrotation Zrotation
								JOINT Head
								{
									OFFSET 0.000000 14.068802 -1.351900
									CHANNELS 3 Xrotation Yrotation Zrotation
									End Site
									{
										OFFSET 0 0 0
									}
								}
							}
						}
						JOINT LeftShoulder_virtual
						{
							OFFSET 0.000000 0.000000 0.000000
							CHANNELS 3 Xrotation Yrotation Zrotation
							JOINT LeftShoulder
							{
								OFFSET 15.263000 10.923401 -0.547700
								CHANNELS 3 Xrotation Yrotation Zrotation
								JOINT LeftArm
								{
									OFFSET 25.438599 -2.830597 -13.032500
									CHANNELS 3 Xrotation Yrotation Zrotation
									JOINT LeftForeArm
									{
										OFFSET 29.960503 0.000000 0.000000
										CHANNELS 3 Xrotation Yrotation Zrotation
										JOINT LeftHand
										{
											OFFSET 27.849251 0.000000 0.000000
											CHANNELS 3 Xrotation Yrotation Zrotation
											End Site
											{
												OFFSET 0 0 0
											}
										}
									}
								}
							}
						}
						JOINT RightShoulder_virtual
						{
							OFFSET 0.000000 0.000000 0.000000
							CHANNELS 3 Xrotation Yrotation Zrotation
							JOINT RightShoulder
							{
								OFFSET -15.263000 10.923401 -0.547700
								CHANNELS 3 Xrotation Yrotation Zrotation
								JOINT RightArm
								{
									OFFSET -25.438599 -2.830597 -13.032500
									CHANNELS 3 Xrotation Yrotation Zrotation
									JOINT RightForeArm
									{
										OFFSET -29.960503 0.000000 0.000000
										CHANNELS 3 Xrotation Yrotation Zrotation
										JOINT RightHand
										{
											OFFSET -27.849251 0.000000 0.000000
											CHANNELS 3 Xrotation Yrotation Zrotation
											End Site
											{
												OFFSET 0 0 0
											}
										}
									}
								}
							}
						}
					}
				}
			}
		}
	}
}
MOTION
Frames: 9
Frame Time: 0.03333333
-0.385571 124.845383 5.255276 0.000000 0.000000 0.000000 -10.864951 -45.964598 9.330739 -61.586620 -9.295592 26.639283 71.142895 -0.488150 3.962508 15.441379 -3.600874 -0.418143 0.000000 0.000000 0.000000 -74.504585 -64.780758 -5.518268 -102.882573 -21.590102 -6.030510 111.671366 14.147662 -2.004639 29.893057 16.293119 27.304557 0.000000 0.000000 0.000000 4.096678 -23.482701 2.624287 14.192803 -10.849906 0.174034 29.222500 -2.138468 -9.480668 16.857279 -0.220383 -5.951573 0.000000 0.000000 0.000000 6.514383 3.136941 -5.622326 2.187009 3.282311 -1.786005 0.000000 0.000000 0.000000 16.369035 0.078182 -1.851855 8.090205 -7.020159 4.764918 7.358866 -3.359442 14.927353 18.451490 -23.780786 18.145217 0.000000 0.000000 0.000000 17.373182 3.203071 -2.225828 16.590410 16.477980 -15.049576 -51.123129 -0.526727 14.766159 -28.426703 53.615093 19.896303 0.000000 0.000000 0.000000 
-0.380933 124.817383 5.235991 0.000000 0.000000 0.000000 -10.899506 -45.986407 9.320400 -61.611373 -9.309831 26.633863 71.098936 -0.497880 3.897529 15.395562 -3.578109 -0.523517 0.000000 0.000000 0.000000 -74.388587 -64.837572 -5.500623 -102.817802 -21.619016 -6.026602 111.526341 14.180987 -2.041401 29.783457 16.328467 27.293366 0.000000 0.000000 0.000000 4.030858 -23.621641 2.633724 14.127702 -10.867272 0.235410 29.313902 -2.143409 -9.467274 16.880005 -0.222156 -5.937829 0.000000 0.000000 0.000000 6.567563 3.135932 -5.611155 2.204180 3.283209 -1.791925 0.000000 0.000000 0.000000 16.398820 0.047615 -1.870648 8.125587 -7.068471 4.482879 7.640952 -3.258097 14.741406 18.438398 -23.757017 18.100222 0.000000 0.000000 0.000000 17.377615 3.231560 -2.190004 16.576142 16.645577 -14.825175 -51.017514 -0.473333 14.784009 -28.281353 53.690539 19.695052 0.000000 0.000000 0.000000 
-0.366621 124.789032 5.230177 0.000000 0.000000 0.000000 -10.896546 -45.995716 9.319020 -61.602794 -9.312274 26.629980 71.026632 -0.488729 3.840243 15.324691 -3.537419 -0.600382 0.000000 0.000000 0.000000 -74.206331 -64.894433 -5.427231 -102.730860 -21.652465 -6.016238 111.374492 14.216927 -2.078246 29.664014 16.363651 27.285064 0.000000 0.000000 0.000000 3.970494 -23.758864 2.642851 14.109178 -10.881446 0.328869 29.403397 -2.152158 -9.444975 16.902814 -0.225022 -5.919280 0.000000 0.000000 0.000000 6.621025 3.134081 -5.593831 2.219637 3.285952 -1.794900 0.000000 0.000000 0.000000 16.418911 0.015564 -1.882640 8.157666 -7.112289 4.224953 7.920777 -3.169716 14.564434 18.429730 -23.759699 18.067532 0.000000 0.000000 0.000000 17.381151 3.252110 -2.150340 16.552851 16.777033 -14.579020 -50.911953 -0.452539 14.782618 -28.152114 53.780001 19.504884 0.000000 0.000000 0.000000 
-0.369021 124.766800 5.203068 0.000000 0.000000 0.000000 -10.895823 -46.051191 9.343945 -61.617199 -9.338087 26.647093 70.965829 -0.477570 3.788673 15.243423 -3.497152 -0.669210 0.000000 0.000000 0.000000 -74.083490 -64.958856 -5.403663 -102.661800 -21.681986 -6.013515 111.221100 14.254303 -2.119201 29.534479 16.399236 27.274089 0.000000 0.000000 0.000000 3.902460 -23.900724 2.650968 14.104276 -10.912526 0.425274 29.484578 -2.166261 -9.414505 16.922878 -0.229455 -5.895610 0.000000 0.000000 0.000000 6.676908 3.129933 -5.573422 2.236525 3.289426 -1.796519 0.000000 0.000000 0.000000 16.437096 -0.014709 -1.887410 8.191385 -7.136029 3.997631 8.157356 -3.033284 14.434637 18.405661 -23.711994 18.047530 0.000000 0.000000 0.000000 17.381160 3.265923 -2.110070 16.522952 16.879976 -14.324549 -50.820514 -0.456115 14.763811 -28.028863 53.865836 19.312191 0.000000 0.000000 0.000000 
-0.372610 124.745796 5.172983 0.000000 0.000000 0.000000 -10.874151 -46.147524 9.356335 -61.604447 -9.363487 26.647727 70.868233 -0.479203 3.738514 15.138684 -3.470113 -0.745928 0.000000 0.000000 0.000000 -73.939776 -65.052484 -5.369594 -102.582850 -21.728881 -6.003814 111.044321 14.289047 -2.150265 29.383033 16.419987 27.269173 0.000000 0.000000 0.000000 3.830510 -24.021924 2.656623 14.108198 -10.893667 0.495018 29.554246 -2.182308 -9.374692 16.933919 -0.236263 -5.866357 0.000000 0.000000 0.000000 6.722184 3.125926 -5.548858 2.248382 3.293235 -1.796002 0.000000 0.000000 0.000000 16.439924 -0.044443 -1.886835 8.212893 -7.156171 3.780235 8.375590 -2.919351 14.273261 18.376149 -23.699744 18.026119 0.000000 0.000000 0.000000 17.376266 3.275752 -2.063786 16.478617 16.964995 -14.040275 -50.734905 -0.485998 14.750589 -27.910226 53.954813 19.125399 0.000000 0.000000 0.000000 
-0.376365 124.692261 5.145971 0.000000 0.000000 0.000000 -10.820688 -46.271892 9.387468 -61.566642 -9.395513 26.655085 70.704602 -0.479001 3.720328 14.976392 -3.453589 -0.772468 0.000000 0.000000 0.000000 -73.789129 -65.126127 -5.302732 -102.508995 -21.764820 -5.994209 110.884412 14.331974 -2.183626 29.231622 16.448870 27.274721 0.000000 0.000000 0.000000 3.757023 -24.147540 2.663629 14.135301 -10.915057 0.641051 29.619341 -2.197370 -9.321693 16.940141 -0.243824 -5.829756 0.000000 0.000000 0.000000 6.771638 3.117523 -5.521665 2.259841 3.295409 -1.794467 0.000000 0.000000 0.000000 16.398931 -0.081761 -1.888227 8.190926 -7.204308 3.548210 8.527138 -2.855057 14.149188 18.332651 -23.741102 18.028607 0.000000 0.000000 0.000000 17.373457 3.277751 -2.014842 16.429223 17.019742 -13.736452 -50.628425 -0.522994 14.715817 -27.775777 54.035331 18.916803 0.000000 0.000000 0.000000 
-0.408644 124.616669 5.117151 0.000000 0.000000 0.000000 -10.707212 -46.318060 9.516408 -61.475165 -9.439666 26.720631 70.574200 -0.471494 3.701896 14.866918 -3.431471 -0.790028 0.000000 0.000000 0.000000 -73.470105 -65.161234 -5.088882 -102.385984 -21.800680 -5.967208 110.682068 14.356945 -2.203983 29.064805 16.449192 27.266475 0.000000 0.000000 0.000000 3.679243 -24.325058 2.672552 14.176274 -11.024586 0.791490 29.692649 -2.213322 -9.265924 16.955128 -0.250632 -5.789787 0.000000 0.000000 0.000000 6.822911 3.111748 -5.489107 2.273773 3.298134 -1.789675 0.000000 0.000000 0.000000 16.358735 -0.118166 -1.885913 8.172007 -7.221700 3.328047 8.753344 -2.689669 14.027480 18.313554 -23.718576 18.032883 0.000000 0.000000 0.000000 17.366038 3.279446 -1.963374 16.372278 17.067944 -13.408235 -50.472957 -0.577503 14.707877 -27.619507 54.118994 18.705878 0.000000 0.000000 0.000000 
-0.518044 124.555740 5.047747 0.000000 0.000000 0.000000 -10.535576 -46.411931 9.676367 -61.359025 -9.486901 26.804113 70.539537 -0.459538 3.663891 14.853114 -3.399916 -0.831483 0.000000 0.000000 0.000000 -73.222012 -65.168693 -4.985931 -102.271202 -21.807189 -5.968053 110.509483 14.359195 -2.223833 28.916658 16.428087 27.232323 0.000000 0.000000 0.000000 3.580721 -24.595177 2.675948 14.155582 -11.337936 0.911807 29.773833 -2.242423 -9.215700 16.966950 -0.260403 -5.753834 0.000000 0.000000 0.000000 6.877037 3.101734 -5.457766 2.285408 3.300532 -1.786182 0.000000 0.000000 0.000000 16.304717 -0.160058 -1.895934 8.140575 -7.268190 3.048898 9.015770 -2.512869 13.898372 18.301374 -23.711470 18.042303 0.000000 0.000000 0.000000 17.359042 3.279395 -1.911844 16.308617 17.084578 -13.068801 -50.354122 -0.658267 14.662160 -27.439336 54.152588 18.451164 0.000000 0.000000 0.000000 
-0.774466 124.662338 4.961254 0.000000 0.000000 0.000000 -10.326902 -46.518021 9.867353 -61.211322 -9.541687 26.901221 70.412044 -0.433673 3.653535 14.757705 -3.362224 -0.819666 0.000000 0.000000 0.000000 -72.871882 -65.234208 -4.869938 -102.094519 -21.835222 -5.970828 110.302330 14.404835 -2.192200 28.745462 16.416199 27.310745 0.000000 0.000000 0.000000 3.484188 -24.877243 2.684415 14.237269 -11.567247 1.093935 29.794911 -2.270520 -9.103467 16.941931 -0.273958 -5.683165 0.000000 0.000000 0.000000 6.914273 3.087255 -5.391611 2.296259 3.300055 -1.764029 0.000000 0.000000 0.000000 16.256919 -0.200388 -1.880190 8.127362 -7.264751 2.849918 9.209579 -2.355635 13.815804 18.292602 -23.746346 18.091738 0.000000 0.000000 0.000000 17.350989 3.279231 -1.859363 16.253074 17.151959 -12.743200 -50.397090 -0.819873 14.526713 -27.270019 54.084535 18.144879 0.000000 0.000000 0.000000 
